# xmcd CD database file
#
# Track frame offsets:
#	150
#	23679
#	45143
#	60130
#	76027
#	102504
#	114545
#	134990
#	155373
#	177029
#	194705
#	217313
#
# Disc length: 3124 seconds
#
# Revision: 2
# Processed by: cddbd v1.5.2PL0 Copyright (c) Steve Scherf et al.
# Submitted via: CDex 1.70beta2
#
DISCID=9e0c320c
DTITLE=サンボマスター - サンボマスターは君に語りかける
DYEAR=2005
DGENRE=Rock and Roll
TTITLE0=歌声よおこれ
TTITLE1=青春狂騒曲
TTITLE2=これで自由になったのだ
TTITLE3=美しき人間の日々 (サンボマスターは君に語りかけるバージョン)
TTITLE4=夜が明けたら
TTITLE5=欲望ロック
TTITLE6=想い出は夜汽車にのって
TTITLE7=週末ソウル
TTITLE8=あなたが人を裏切るなら僕は誰かを殺してしまったさ
TTITLE9=マフラーの揺れる間に
TTITLE10=ふたり (ふたりは世界のためにバージョン)
TTITLE11=月に咲く花のようになるの
EXTD=YEAR: 2005
EXTT0=
EXTT1=
EXTT2=
EXTT3=
EXTT4=
EXTT5=
EXTT6=
EXTT7=
EXTT8=
EXTT9=
EXTT10=
EXTT11=
PLAYORDER=
